<svg width="513" height="471" viewBox="0 0 513 471" fill="none" xmlns="http://www.w3.org/2000/svg">
<path d="M477.65 235.588C477.65 365.441 372.38 470.711 242.527 470.711C112.668 470.711 7.39832 365.441 7.39832 235.588C7.39832 105.729 112.668 0.46875 242.527 0.46875C372.38 0.46875 477.65 105.729 477.65 235.588Z" fill="#FCEE21"/>
<path d="M493.888 118.324C479.683 91.942 459.103 70.9725 435.941 59.2696C412.221 47.2757 388.59 46.3603 369.404 56.6971C366.926 58.0303 364.564 59.5325 362.321 61.1896L159.728 207.286C150.57 213.801 144.81 223.692 143.571 234.663L80.2868 275.377C70.2644 281.827 64.5092 293.234 65.2697 305.138C65.4199 307.5 65.664 310.114 66.0395 312.917L32.1185 329.671C31.5834 329.15 30.9966 328.671 30.3347 328.277C27.274 326.446 23.4716 326.474 20.4109 328.342L6.22472 337.027C2.31436 339.426 -0.0515641 343.744 0.05171 348.298C0.394395 362.869 4.94787 398.461 39.7984 414.253C41.5353 415.037 43.3989 415.426 45.2579 415.426C47.3562 415.426 49.4358 414.929 51.2994 413.943L61.8147 408.376C64.7298 406.841 66.6357 403.963 66.9174 400.682C66.9549 400.25 66.8845 399.827 66.8657 399.4L104.885 379.707C106.218 380.665 107.528 381.642 108.955 382.562C114.241 385.97 120.306 387.702 126.436 387.702C130.985 387.697 135.576 386.749 139.914 384.815L207.225 354.875C207.357 354.95 207.479 355.034 207.61 355.109C213.577 358.602 220.346 360.367 227.162 360.367C232.453 360.367 237.771 359.301 242.757 357.151L467.966 260.045C471.017 259.003 473.993 257.735 476.862 256.191C496.047 245.859 508.285 225.626 511.322 199.221C514.289 173.435 508.102 144.701 493.888 118.324Z" fill="#1B1464"/>
<path d="M57.449 400.118L46.929 405.69C45.9479 406.207 44.7227 406.226 43.6571 405.747C13.6277 392.143 9.68913 360.888 9.39339 348.082C9.36053 346.838 10.0177 345.655 11.1021 344.993L25.2883 336.309L25.5465 336.295C25.7483 336.417 25.739 336.609 25.7343 336.694C23.9316 368.77 44.8542 389.885 57.4865 399.616" fill="#057DBC"/>
<path d="M54.5338 329.018L35.0384 338.646C34.4845 356.316 42.0047 370.155 50.3465 379.989L74.541 367.455C62.5048 356.668 57.5804 342.172 54.5338 329.018Z" fill="#01AEF0"/>
<path d="M67.7529 322.489L54.5338 329.018C57.5804 342.172 62.5047 356.668 74.5409 367.455L50.3464 379.989C54.3413 384.702 58.5192 388.505 62.101 391.349L96.8623 373.342C79.2868 357.583 71.2971 338.332 67.7529 322.489Z" fill="#057DBC"/>
<path d="M143.153 246.037L125.394 257.463C125.958 284.798 131.018 318.4 164.737 341.688L105.195 368.174C107.913 370.441 110.814 372.643 114.02 374.708C120.569 378.938 128.831 379.524 136.116 376.285L197.795 348.852C152.659 317.677 143.542 274.405 143.153 246.037Z" fill="#057DBC"/>
<path d="M125.394 257.463L85.3425 283.23C78.1649 287.845 74.0433 296.013 74.5925 304.542C75.8037 323.564 82.3287 349.086 105.195 368.174L164.737 341.688C131.018 318.4 125.958 284.798 125.394 257.463Z" fill="#01AEF0"/>
<path d="M485.668 122.755C472.355 98.0493 453.198 78.46 431.726 67.5973C422.75 63.0673 413.85 60.3259 405.306 59.3401C408.118 60.4197 410.954 61.6825 413.789 63.1143C435.261 73.9675 454.418 93.5521 467.731 118.272C481.039 142.983 486.86 169.755 484.11 193.672C481.438 216.89 470.961 234.541 454.62 243.413L446.785 246.788C439.467 249.243 431.524 249.985 423.239 249.074C437.965 254.67 452.245 255.454 464.722 251.276L472.557 247.896C488.898 239.029 499.375 221.373 502.046 198.155C504.797 174.238 498.981 147.466 485.668 122.755Z" fill="#057DBC"/>
<path d="M446.785 246.788L454.62 243.413C470.961 234.541 481.439 216.89 484.11 193.672C486.856 169.755 481.04 142.983 467.731 118.272C454.418 93.5521 435.261 73.9674 413.789 63.1142C410.954 61.6824 408.118 60.4197 405.306 59.34C402.959 59.0771 400.64 58.9081 398.354 58.9081C389.566 58.9081 381.272 60.9032 373.831 64.9168C371.78 66.02 369.822 67.2593 367.958 68.6394H367.963L367.836 68.738C354.857 78.3754 346.552 94.4299 344.215 114.742C341.464 138.641 347.28 165.417 360.593 190.128C373.901 214.834 393.064 234.433 414.535 245.286C417.451 246.76 420.352 247.976 423.239 249.074C431.524 249.985 439.467 249.243 446.785 246.788Z" fill="#01AEF0"/>
<path d="M425.135 95.0449C410.878 85.431 397.246 83.2528 386.754 88.9141C376.258 94.5614 370.573 107.147 370.756 124.333C370.925 140.444 376.239 159 385.717 176.594C395.19 194.189 407.766 208.835 421.126 217.838C430.186 223.955 438.988 227.053 446.903 227.053C451.437 227.053 455.681 226.035 459.502 223.965C470.003 218.317 475.683 205.737 475.505 188.551C475.336 172.435 470.022 153.883 460.549 136.289C451.071 118.695 438.495 104.044 425.135 95.0449Z" fill="#1B1464"/>
<path d="M455.075 215.745C447.785 219.679 437.58 217.669 426.346 210.098C414.221 201.925 402.71 188.457 393.937 172.172C385.168 155.878 380.248 138.862 380.098 124.234C379.952 110.691 383.891 101.063 391.181 97.1339C393.622 95.8241 396.387 95.1622 399.41 95.1622C405.419 95.1622 412.442 97.7488 419.915 102.781C432.04 110.954 443.551 124.427 452.324 140.711C461.098 157.005 466.013 174.022 466.168 188.649C466.309 202.192 462.37 211.816 455.075 215.745Z" fill="white"/>
<path d="M352.369 194.559C338.164 168.182 331.967 139.448 334.934 113.672C336.037 104.067 338.375 95.2983 341.806 87.5105L165.169 214.881C157.639 220.242 153.081 228.523 152.635 237.611C151.588 259.092 155.18 295.149 184.228 325.207L386.858 237.836C373.385 226.345 361.546 211.59 352.369 194.559Z" fill="#01AEF0"/>
<path d="M410.325 253.623C402.119 249.473 394.247 244.141 386.858 237.836L184.228 325.207C191.762 333.009 200.991 340.416 212.328 347.045C220.374 351.758 230.368 352.326 239.062 348.575L438.331 262.655C429.191 261.402 419.765 258.397 410.325 253.623Z" fill="#057DBC"/>
</svg>
