<svg width="1812" height="527" viewBox="0 0 1812 527" fill="none" xmlns="http://www.w3.org/2000/svg">
<path d="M477.65 282.588C477.65 412.441 372.38 517.711 242.527 517.711C112.668 517.711 7.39832 412.441 7.39832 282.588C7.39832 152.729 112.668 47.4688 242.527 47.4688C372.38 47.4688 477.65 152.729 477.65 282.588Z" fill="#FCEE21"/>
<path d="M493.888 165.324C479.683 138.942 459.103 117.973 435.941 106.27C412.221 94.2757 388.59 93.3603 369.404 103.697C366.926 105.03 364.564 106.532 362.321 108.19L159.728 254.286C150.57 260.801 144.81 270.692 143.571 281.663L80.2868 322.377C70.2644 328.827 64.5092 340.234 65.2697 352.138C65.4199 354.5 65.664 357.114 66.0395 359.917L32.1185 376.671C31.5834 376.15 30.9966 375.671 30.3347 375.277C27.274 373.446 23.4716 373.474 20.4109 375.342L6.22472 384.027C2.31436 386.426 -0.0515641 390.744 0.05171 395.298C0.394395 409.869 4.94787 445.461 39.7984 461.253C41.5353 462.037 43.3989 462.426 45.2579 462.426C47.3562 462.426 49.4358 461.929 51.2994 460.943L61.8147 455.376C64.7298 453.841 66.6357 450.963 66.9174 447.682C66.9549 447.25 66.8845 446.827 66.8657 446.4L104.885 426.707C106.218 427.665 107.528 428.642 108.955 429.562C114.241 432.97 120.306 434.702 126.436 434.702C130.985 434.697 135.576 433.749 139.914 431.815L207.225 401.875C207.357 401.95 207.479 402.034 207.61 402.109C213.577 405.602 220.346 407.367 227.162 407.367C232.453 407.367 237.771 406.301 242.757 404.151L467.966 307.045C471.017 306.003 473.993 304.735 476.862 303.191C496.047 292.859 508.285 272.626 511.322 246.221C514.289 220.435 508.102 191.701 493.888 165.324Z" fill="#1B1464"/>
<path d="M57.449 447.118L46.929 452.69C45.9479 453.207 44.7227 453.226 43.6571 452.747C13.6277 439.143 9.68913 407.888 9.39339 395.082C9.36053 393.838 10.0177 392.655 11.1021 391.993L25.2883 383.309L25.5465 383.295C25.7483 383.417 25.739 383.609 25.7343 383.694C23.9316 415.77 44.8542 436.885 57.4865 446.616" fill="#057DBC"/>
<path d="M54.5338 376.018L35.0384 385.646C34.4845 403.316 42.0047 417.155 50.3465 426.989L74.541 414.455C62.5048 403.668 57.5804 389.172 54.5338 376.018Z" fill="#01AEF0"/>
<path d="M67.7529 369.489L54.5338 376.018C57.5804 389.172 62.5047 403.668 74.5409 414.455L50.3464 426.989C54.3413 431.702 58.5192 435.505 62.101 438.349L96.8623 420.342C79.2868 404.583 71.2971 385.332 67.7529 369.489Z" fill="#057DBC"/>
<path d="M143.153 293.037L125.394 304.463C125.958 331.798 131.018 365.4 164.737 388.688L105.195 415.174C107.913 417.441 110.814 419.643 114.02 421.708C120.569 425.938 128.831 426.524 136.116 423.285L197.795 395.852C152.659 364.677 143.542 321.405 143.153 293.037Z" fill="#057DBC"/>
<path d="M125.394 304.463L85.3425 330.23C78.1649 334.845 74.0433 343.013 74.5925 351.542C75.8037 370.564 82.3287 396.086 105.195 415.174L164.737 388.688C131.018 365.4 125.958 331.798 125.394 304.463Z" fill="#01AEF0"/>
<path d="M485.668 169.755C472.355 145.049 453.198 125.46 431.726 114.597C422.75 110.067 413.85 107.326 405.306 106.34C408.118 107.42 410.954 108.683 413.789 110.114C435.261 120.968 454.418 140.552 467.731 165.272C481.039 189.983 486.86 216.755 484.11 240.672C481.438 263.89 470.961 281.541 454.62 290.413L446.785 293.788C439.467 296.243 431.524 296.985 423.239 296.074C437.965 301.67 452.245 302.454 464.722 298.276L472.557 294.896C488.898 286.029 499.375 268.373 502.046 245.155C504.797 221.238 498.981 194.466 485.668 169.755Z" fill="#057DBC"/>
<path d="M446.785 293.788L454.62 290.413C470.961 281.541 481.439 263.89 484.11 240.672C486.856 216.755 481.04 189.983 467.731 165.272C454.418 140.552 435.261 120.967 413.789 110.114C410.954 108.682 408.118 107.42 405.306 106.34C402.959 106.077 400.64 105.908 398.354 105.908C389.566 105.908 381.272 107.903 373.831 111.917C371.78 113.02 369.822 114.259 367.958 115.639H367.963L367.836 115.738C354.857 125.375 346.552 141.43 344.215 161.742C341.464 185.641 347.28 212.417 360.593 237.128C373.901 261.834 393.064 281.433 414.535 292.286C417.451 293.76 420.352 294.976 423.239 296.074C431.524 296.985 439.467 296.243 446.785 293.788Z" fill="#01AEF0"/>
<path d="M425.135 142.045C410.878 132.431 397.246 130.253 386.754 135.914C376.258 141.561 370.573 154.147 370.756 171.333C370.925 187.444 376.239 206 385.717 223.594C395.19 241.189 407.766 255.835 421.126 264.838C430.186 270.955 438.988 274.053 446.903 274.053C451.437 274.053 455.681 273.035 459.502 270.965C470.003 265.317 475.683 252.737 475.505 235.551C475.336 219.435 470.022 200.883 460.549 183.289C451.071 165.695 438.495 151.044 425.135 142.045Z" fill="#1B1464"/>
<path d="M455.075 262.745C447.785 266.679 437.58 264.669 426.346 257.098C414.221 248.925 402.71 235.457 393.937 219.172C385.168 202.878 380.248 185.862 380.098 171.234C379.952 157.691 383.891 148.063 391.181 144.134C393.622 142.824 396.387 142.162 399.41 142.162C405.419 142.162 412.442 144.749 419.915 149.781C432.04 157.954 443.551 171.427 452.324 187.711C461.098 204.005 466.013 221.022 466.168 235.649C466.309 249.192 462.37 258.816 455.075 262.745Z" fill="white"/>
<path d="M352.369 241.559C338.164 215.182 331.967 186.448 334.934 160.672C336.037 151.067 338.375 142.298 341.806 134.51L165.169 261.881C157.639 267.242 153.081 275.523 152.635 284.611C151.588 306.092 155.18 342.149 184.228 372.207L386.858 284.836C373.385 273.345 361.546 258.59 352.369 241.559Z" fill="#01AEF0"/>
<path d="M410.325 300.623C402.119 296.473 394.247 291.141 386.858 284.836L184.228 372.207C191.762 380.009 200.991 387.416 212.328 394.045C220.374 398.758 230.368 399.326 239.062 395.575L438.331 309.655C429.191 308.402 419.765 305.397 410.325 300.623Z" fill="#057DBC"/>
<path d="M722.448 322.3C722.448 317.1 720.548 312.6 716.748 308.8C713.148 305 708.548 301.5 702.948 298.3C697.548 295.1 691.548 291.9 684.948 288.7C678.548 285.5 672.548 281.8 666.948 277.6C661.548 273.2 656.948 268.1 653.148 262.3C649.548 256.5 647.748 249.4 647.748 241C647.748 235 649.148 229.6 651.948 224.8C654.748 219.8 658.548 215.6 663.348 212.2C668.148 208.8 673.848 206.2 680.448 204.4C687.248 202.4 694.548 201.4 702.348 201.4C713.148 201.4 723.148 202.3 732.348 204.1C741.748 205.7 749.948 208 756.948 211C756.148 217.4 754.548 224.3 752.148 231.7C749.748 238.9 747.448 245.5 745.248 251.5H735.048L722.448 220.9C720.048 219.9 717.548 219.3 714.948 219.1C712.348 218.7 709.448 218.5 706.248 218.5C700.248 218.5 695.648 220.3 692.448 223.9C689.448 227.3 687.948 231.2 687.948 235.6C687.948 240.6 689.748 245 693.348 248.8C697.148 252.4 701.748 255.8 707.148 259C712.748 262.2 718.748 265.4 725.148 268.6C731.748 271.8 737.748 275.5 743.148 279.7C748.748 283.7 753.348 288.5 756.948 294.1C760.748 299.7 762.648 306.4 762.648 314.2C762.648 328 757.048 338.9 745.848 346.9C734.648 354.7 719.648 358.6 700.848 358.6C691.248 358.6 681.348 357.6 671.148 355.6C660.948 353.6 652.148 350.8 644.748 347.2C645.148 340 646.848 332.7 649.848 325.3C652.848 317.9 656.048 311.3 659.448 305.5H669.648L684.348 338.2C686.548 339.8 688.948 340.8 691.548 341.2C694.348 341.4 696.948 341.5 699.348 341.5C705.148 341.5 710.448 339.8 715.248 336.4C720.048 333 722.448 328.3 722.448 322.3ZM860.793 415H777.993V403.3C784.793 400.1 791.393 397.7 797.793 396.1V226.3L777.993 223.9V212.2C781.193 210.8 785.093 209.5 789.693 208.3C794.493 207.1 799.393 206.1 804.393 205.3C809.393 204.3 814.193 203.5 818.793 202.9C823.593 202.3 827.593 201.8 830.793 201.4H840.993V235H841.293C844.693 225.4 849.993 217.4 857.193 211C864.593 204.6 874.793 201.4 887.793 201.4C896.593 201.4 904.493 202.9 911.493 205.9C918.693 208.7 924.693 213.2 929.493 219.4C934.493 225.4 938.293 233.2 940.893 242.8C943.693 252.2 945.093 263.5 945.093 276.7C945.093 289.3 943.293 300.7 939.693 310.9C936.293 321.1 931.293 329.7 924.693 336.7C918.293 343.7 910.393 349.1 900.993 352.9C891.793 356.7 881.293 358.6 869.493 358.6C862.693 358.6 857.293 358.1 853.293 357.1C849.493 356.3 845.393 354.8 840.993 352.6V396.1C844.193 396.5 847.393 397.2 850.593 398.2C853.793 399.4 857.193 401.1 860.793 403.3V415ZM870.393 225.4C863.593 225.4 857.493 227.8 852.093 232.6C846.893 237.4 843.193 244.8 840.993 254.8V334.6C844.193 337 847.593 338.8 851.193 340C854.793 341 859.493 341.5 865.293 341.5C876.693 341.5 885.093 336 890.493 325C895.893 314 898.593 297.9 898.593 276.7C898.593 260.3 896.493 247.7 892.293 238.9C888.293 229.9 880.993 225.4 870.393 225.4ZM965.905 223.9C962.905 223.1 960.105 222.1 957.505 220.9C955.105 219.7 952.605 218.3 950.005 216.7V205H1028.91V216.4C1024.71 219.2 1019.01 221.7 1011.81 223.9L1042.11 299.2L1047.21 318.4H1047.81L1052.61 298.9L1076.01 223.9C1070.01 222.7 1064.51 220.3 1059.51 216.7V205H1117.41V216.7C1113.21 219.5 1107.51 221.9 1100.31 223.9L1051.41 355C1046.61 367.8 1041.81 378.2 1037.01 386.2C1032.21 394.4 1027.41 400.9 1022.61 405.7C1017.81 410.5 1013.01 413.8 1008.21 415.6C1003.41 417.6 998.605 418.9 993.805 419.5C991.805 417.7 990.005 415.4 988.405 412.6C986.805 410 985.405 407.1 984.205 403.9C983.005 400.9 982.005 397.8 981.205 394.6C980.405 391.4 979.905 388.4 979.705 385.6L983.605 378.4H1020.21C1022.01 375.6 1023.51 372.6 1024.71 369.4C1026.11 366.2 1027.71 361.4 1029.51 355L965.905 223.9ZM1192.2 201.4C1205.2 201.4 1216 202.8 1224.6 205.6C1233.2 208.2 1239.7 211.5 1244.1 215.5C1253.5 205.3 1264.3 198.2 1276.5 194.2C1277.9 195.2 1279.3 196.7 1280.7 198.7C1282.1 200.5 1283.3 202.5 1284.3 204.7C1285.3 206.9 1286.1 209.1 1286.7 211.3C1287.3 213.5 1287.6 215.3 1287.6 216.7L1283.7 223.9H1252.2C1254.4 226.7 1256.4 230.4 1258.2 235C1260.2 239.4 1261.2 244.7 1261.2 250.9C1261.2 257.5 1259.8 263.7 1257 269.5C1254.2 275.3 1249.9 280.5 1244.1 285.1C1238.5 289.5 1231.3 293 1222.5 295.6C1213.9 298.2 1203.8 299.5 1192.2 299.5C1188.8 299.5 1185.7 299.5 1182.9 299.5C1180.3 299.3 1178 299 1176 298.6C1175.2 299.8 1174.3 301.3 1173.3 303.1C1172.5 304.7 1172.1 306.3 1172.1 307.9C1172.1 311.3 1174.5 314 1179.3 316C1184.1 318 1190.2 319.8 1197.6 321.4C1205 323 1212.9 324.8 1221.3 326.8C1229.9 328.8 1237.9 331.5 1245.3 334.9C1252.7 338.1 1258.9 342.4 1263.9 347.8C1268.9 353 1271.5 359.8 1271.7 368.2C1271.9 376.2 1269.9 383.3 1265.7 389.5C1261.5 395.7 1255.7 400.9 1248.3 405.1C1241.1 409.5 1232.5 412.8 1222.5 415C1212.7 417.4 1202.2 418.6 1191 418.6C1177.8 418.6 1166.5 417.5 1157.1 415.3C1147.9 413.3 1140.4 410.5 1134.6 406.9C1128.8 403.3 1124.5 399.2 1121.7 394.6C1119.1 390 1117.8 385.2 1117.8 380.2C1117.8 374.6 1118.9 369.8 1121.1 365.8C1123.3 361.8 1126.4 358.3 1130.4 355.3C1134.4 352.3 1139 349.8 1144.2 347.8C1149.6 345.8 1155.5 344 1161.9 342.4C1158.9 341.6 1156 340.6 1153.2 339.4C1150.4 338.2 1147.9 336.8 1145.7 335.2C1143.5 333.4 1141.7 331.4 1140.3 329.2C1138.9 326.8 1138.2 324.1 1138.2 321.1C1138.2 318.5 1139 316 1140.6 313.6C1142.2 311 1144.3 308.7 1146.9 306.7C1149.5 304.5 1152.3 302.6 1155.3 301C1158.3 299.2 1161.3 297.7 1164.3 296.5C1151.7 293.7 1141.7 288.3 1134.3 280.3C1126.9 272.1 1123.2 261.7 1123.2 249.1C1123.2 234.1 1129.4 222.4 1141.8 214C1154.2 205.6 1171 201.4 1192.2 201.4ZM1230 377.8C1230 372.4 1228.3 368 1224.9 364.6C1221.7 361.4 1217.5 358.7 1212.3 356.5C1207.1 354.5 1201.2 352.8 1194.6 351.4C1188.2 349.8 1181.8 348 1175.4 346C1170.2 350 1166.5 354 1164.3 358C1162.1 362 1161 366.8 1161 372.4C1161 381.6 1164.1 388.7 1170.3 393.7C1176.7 398.9 1185.6 401.5 1197 401.5C1208.2 401.5 1216.5 399.1 1221.9 394.3C1227.3 389.7 1230 384.2 1230 377.8ZM1166.4 250.6C1166.4 261 1168.1 268.9 1171.5 274.3C1175.1 279.7 1182 282.4 1192.2 282.4C1202 282.4 1208.7 279.7 1212.3 274.3C1216.1 268.7 1218 260.8 1218 250.6C1218 239.8 1216.1 231.8 1212.3 226.6C1208.5 221.2 1201.8 218.5 1192.2 218.5C1182.2 218.5 1175.4 221.1 1171.8 226.3C1168.2 231.5 1166.4 239.6 1166.4 250.6ZM1374.44 355H1291.64V343.3C1298.24 340.1 1304.84 337.7 1311.44 336.1V154.3L1288.64 151.9V140.2C1291.24 139 1294.84 137.8 1299.44 136.6C1304.04 135.4 1308.94 134.4 1314.14 133.6C1319.54 132.6 1324.84 131.8 1330.04 131.2C1335.44 130.4 1340.24 129.8 1344.44 129.4H1354.64V336.1C1361.24 337.7 1367.84 340.1 1374.44 343.3V355ZM1522.95 311.5C1522.95 315.9 1522.95 319.7 1522.95 322.9C1523.15 326.1 1523.45 329.5 1523.85 333.1L1544.55 336.1V346.6C1542.15 347.8 1538.85 349 1534.65 350.2C1530.65 351.4 1526.35 352.6 1521.75 353.8C1517.35 354.8 1512.95 355.6 1508.55 356.2C1504.15 357 1500.25 357.6 1496.85 358H1486.65C1484.65 353.4 1483.45 348.8 1483.05 344.2C1482.65 339.6 1482.35 334 1482.15 327.4H1480.65C1479.65 331.4 1477.95 335.3 1475.55 339.1C1473.15 342.7 1470.05 346 1466.25 349C1462.65 351.8 1458.35 354.1 1453.35 355.9C1448.35 357.7 1442.75 358.6 1436.55 358.6C1429.95 358.6 1423.85 357.6 1418.25 355.6C1412.65 353.6 1407.75 350.8 1403.55 347.2C1399.35 343.6 1396.05 339.3 1393.65 334.3C1391.25 329.1 1390.05 323.3 1390.05 316.9C1390.05 307.9 1391.75 300.5 1395.15 294.7C1398.55 288.9 1403.85 284.2 1411.05 280.6C1418.45 276.8 1427.85 274 1439.25 272.2C1450.85 270.4 1464.85 269.1 1481.25 268.3C1482.85 251.1 1482.15 238.5 1479.15 230.5C1476.15 222.5 1469.65 218.5 1459.65 218.5C1453.45 218.5 1447.75 219.5 1442.55 221.5L1428.45 257.5H1415.25C1413.65 255.1 1412.05 252.4 1410.45 249.4C1409.05 246.2 1407.65 242.9 1406.25 239.5C1405.05 235.9 1403.95 232.3 1402.95 228.7C1402.15 225.1 1401.55 221.6 1401.15 218.2C1408.75 213 1418.55 208.9 1430.55 205.9C1442.55 202.9 1455.25 201.4 1468.65 201.4C1480.05 201.4 1489.35 202.7 1496.55 205.3C1503.75 207.7 1509.35 211.1 1513.35 215.5C1517.55 219.7 1520.45 224.7 1522.05 230.5C1523.65 236.3 1524.45 242.5 1524.45 249.1C1524.45 261.1 1524.15 272 1523.55 281.8C1523.15 291.4 1522.95 301.3 1522.95 311.5ZM1455.45 334.6C1459.65 334.6 1463.25 333.8 1466.25 332.2C1469.25 330.6 1471.75 328.7 1473.75 326.5C1475.95 324.3 1477.55 321.9 1478.55 319.3C1479.75 316.7 1480.65 314.4 1481.25 312.4V282.4C1471.85 282.6 1464.15 283.2 1458.15 284.2C1452.15 285.2 1447.45 286.9 1444.05 289.3C1440.65 291.5 1438.25 294.4 1436.85 298C1435.65 301.4 1435.05 305.6 1435.05 310.6C1435.05 318.2 1436.85 324.1 1440.45 328.3C1444.05 332.5 1449.05 334.6 1455.45 334.6ZM1635.34 322.3C1635.34 317.1 1633.44 312.6 1629.64 308.8C1626.04 305 1621.44 301.5 1615.84 298.3C1610.44 295.1 1604.44 291.9 1597.84 288.7C1591.44 285.5 1585.44 281.8 1579.84 277.6C1574.44 273.2 1569.84 268.1 1566.04 262.3C1562.44 256.5 1560.64 249.4 1560.64 241C1560.64 235 1562.04 229.6 1564.84 224.8C1567.64 219.8 1571.44 215.6 1576.24 212.2C1581.04 208.8 1586.74 206.2 1593.34 204.4C1600.14 202.4 1607.44 201.4 1615.24 201.4C1626.04 201.4 1636.04 202.3 1645.24 204.1C1654.64 205.7 1662.84 208 1669.84 211C1669.04 217.4 1667.44 224.3 1665.04 231.7C1662.64 238.9 1660.34 245.5 1658.14 251.5H1647.94L1635.34 220.9C1632.94 219.9 1630.44 219.3 1627.84 219.1C1625.24 218.7 1622.34 218.5 1619.14 218.5C1613.14 218.5 1608.54 220.3 1605.34 223.9C1602.34 227.3 1600.84 231.2 1600.84 235.6C1600.84 240.6 1602.64 245 1606.24 248.8C1610.04 252.4 1614.64 255.8 1620.04 259C1625.64 262.2 1631.64 265.4 1638.04 268.6C1644.64 271.8 1650.64 275.5 1656.04 279.7C1661.64 283.7 1666.24 288.5 1669.84 294.1C1673.64 299.7 1675.54 306.4 1675.54 314.2C1675.54 328 1669.94 338.9 1658.74 346.9C1647.54 354.7 1632.54 358.6 1613.74 358.6C1604.14 358.6 1594.24 357.6 1584.04 355.6C1573.84 353.6 1565.04 350.8 1557.64 347.2C1558.04 340 1559.74 332.7 1562.74 325.3C1565.74 317.9 1568.94 311.3 1572.34 305.5H1582.54L1597.24 338.2C1599.44 339.8 1601.84 340.8 1604.44 341.2C1607.24 341.4 1609.84 341.5 1612.24 341.5C1618.04 341.5 1623.34 339.8 1628.14 336.4C1632.94 333 1635.34 328.3 1635.34 322.3ZM1770.98 322.3C1770.98 317.1 1769.08 312.6 1765.28 308.8C1761.68 305 1757.08 301.5 1751.48 298.3C1746.08 295.1 1740.08 291.9 1733.48 288.7C1727.08 285.5 1721.08 281.8 1715.48 277.6C1710.08 273.2 1705.48 268.1 1701.68 262.3C1698.08 256.5 1696.28 249.4 1696.28 241C1696.28 235 1697.68 229.6 1700.48 224.8C1703.28 219.8 1707.08 215.6 1711.88 212.2C1716.68 208.8 1722.38 206.2 1728.98 204.4C1735.78 202.4 1743.08 201.4 1750.88 201.4C1761.68 201.4 1771.68 202.3 1780.88 204.1C1790.28 205.7 1798.48 208 1805.48 211C1804.68 217.4 1803.08 224.3 1800.68 231.7C1798.28 238.9 1795.98 245.5 1793.78 251.5H1783.58L1770.98 220.9C1768.58 219.9 1766.08 219.3 1763.48 219.1C1760.88 218.7 1757.98 218.5 1754.78 218.5C1748.78 218.5 1744.18 220.3 1740.98 223.9C1737.98 227.3 1736.48 231.2 1736.48 235.6C1736.48 240.6 1738.28 245 1741.88 248.8C1745.68 252.4 1750.28 255.8 1755.68 259C1761.28 262.2 1767.28 265.4 1773.68 268.6C1780.28 271.8 1786.28 275.5 1791.68 279.7C1797.28 283.7 1801.88 288.5 1805.48 294.1C1809.28 299.7 1811.18 306.4 1811.18 314.2C1811.18 328 1805.58 338.9 1794.38 346.9C1783.18 354.7 1768.18 358.6 1749.38 358.6C1739.78 358.6 1729.88 357.6 1719.68 355.6C1709.48 353.6 1700.68 350.8 1693.28 347.2C1693.68 340 1695.38 332.7 1698.38 325.3C1701.38 317.9 1704.58 311.3 1707.98 305.5H1718.18L1732.88 338.2C1735.08 339.8 1737.48 340.8 1740.08 341.2C1742.88 341.4 1745.48 341.5 1747.88 341.5C1753.68 341.5 1758.98 339.8 1763.78 336.4C1768.58 333 1770.98 328.3 1770.98 322.3Z" fill="black"/>
</svg>
