<svg width="1505" height="527" viewBox="0 0 1505 527" fill="none" xmlns="http://www.w3.org/2000/svg">
<path d="M477.65 282.588C477.65 412.441 372.38 517.711 242.527 517.711C112.668 517.711 7.39832 412.441 7.39832 282.588C7.39832 152.729 112.668 47.4688 242.527 47.4688C372.38 47.4688 477.65 152.729 477.65 282.588Z" fill="#FCEE21"/>
<path d="M493.888 165.324C479.683 138.942 459.103 117.973 435.941 106.27C412.221 94.2757 388.59 93.3603 369.404 103.697C366.926 105.03 364.564 106.532 362.321 108.19L159.728 254.286C150.57 260.801 144.81 270.692 143.571 281.663L80.2868 322.377C70.2644 328.827 64.5092 340.234 65.2697 352.138C65.4199 354.5 65.664 357.114 66.0395 359.917L32.1185 376.671C31.5834 376.15 30.9966 375.671 30.3347 375.277C27.274 373.446 23.4716 373.474 20.4109 375.342L6.22472 384.027C2.31436 386.426 -0.0515641 390.744 0.05171 395.298C0.394395 409.869 4.94787 445.461 39.7984 461.253C41.5353 462.037 43.3989 462.426 45.2579 462.426C47.3562 462.426 49.4358 461.929 51.2994 460.943L61.8147 455.376C64.7298 453.841 66.6357 450.963 66.9174 447.682C66.9549 447.25 66.8845 446.827 66.8657 446.4L104.885 426.707C106.218 427.665 107.528 428.642 108.955 429.562C114.241 432.97 120.306 434.702 126.436 434.702C130.985 434.697 135.576 433.749 139.914 431.815L207.225 401.875C207.357 401.95 207.479 402.034 207.61 402.109C213.577 405.602 220.346 407.367 227.162 407.367C232.453 407.367 237.771 406.301 242.757 404.151L467.966 307.045C471.017 306.003 473.993 304.735 476.862 303.191C496.047 292.859 508.285 272.626 511.322 246.221C514.289 220.435 508.102 191.701 493.888 165.324Z" fill="#1B1464"/>
<path d="M57.449 447.118L46.929 452.69C45.9479 453.207 44.7227 453.226 43.6571 452.747C13.6277 439.143 9.68913 407.888 9.39339 395.082C9.36053 393.838 10.0177 392.655 11.1021 391.993L25.2883 383.309L25.5465 383.295C25.7483 383.417 25.739 383.609 25.7343 383.694C23.9316 415.77 44.8542 436.885 57.4865 446.616" fill="#057DBC"/>
<path d="M54.5338 376.018L35.0384 385.646C34.4845 403.316 42.0047 417.155 50.3465 426.989L74.541 414.455C62.5048 403.668 57.5804 389.172 54.5338 376.018Z" fill="#01AEF0"/>
<path d="M67.7529 369.489L54.5338 376.018C57.5804 389.172 62.5047 403.668 74.5409 414.455L50.3464 426.989C54.3413 431.702 58.5192 435.505 62.101 438.349L96.8623 420.342C79.2868 404.583 71.2971 385.332 67.7529 369.489Z" fill="#057DBC"/>
<path d="M143.153 293.037L125.394 304.463C125.958 331.798 131.018 365.4 164.737 388.688L105.195 415.174C107.913 417.441 110.814 419.643 114.02 421.708C120.569 425.938 128.831 426.524 136.116 423.285L197.795 395.852C152.659 364.677 143.542 321.405 143.153 293.037Z" fill="#057DBC"/>
<path d="M125.394 304.463L85.3425 330.23C78.1649 334.845 74.0433 343.013 74.5925 351.542C75.8037 370.564 82.3287 396.086 105.195 415.174L164.737 388.688C131.018 365.4 125.958 331.798 125.394 304.463Z" fill="#01AEF0"/>
<path d="M485.668 169.755C472.355 145.049 453.198 125.46 431.726 114.597C422.75 110.067 413.85 107.326 405.306 106.34C408.118 107.42 410.954 108.683 413.789 110.114C435.261 120.968 454.418 140.552 467.731 165.272C481.039 189.983 486.86 216.755 484.11 240.672C481.438 263.89 470.961 281.541 454.62 290.413L446.785 293.788C439.467 296.243 431.524 296.985 423.239 296.074C437.965 301.67 452.245 302.454 464.722 298.276L472.557 294.896C488.898 286.029 499.375 268.373 502.046 245.155C504.797 221.238 498.981 194.466 485.668 169.755Z" fill="#057DBC"/>
<path d="M446.785 293.788L454.62 290.413C470.961 281.541 481.439 263.89 484.11 240.672C486.856 216.755 481.04 189.983 467.731 165.272C454.418 140.552 435.261 120.967 413.789 110.114C410.954 108.682 408.118 107.42 405.306 106.34C402.959 106.077 400.64 105.908 398.354 105.908C389.566 105.908 381.272 107.903 373.831 111.917C371.78 113.02 369.822 114.259 367.958 115.639H367.963L367.836 115.738C354.857 125.375 346.552 141.43 344.215 161.742C341.464 185.641 347.28 212.417 360.593 237.128C373.901 261.834 393.064 281.433 414.535 292.286C417.451 293.76 420.352 294.976 423.239 296.074C431.524 296.985 439.467 296.243 446.785 293.788Z" fill="#01AEF0"/>
<path d="M425.135 142.045C410.878 132.431 397.246 130.253 386.754 135.914C376.258 141.561 370.573 154.147 370.756 171.333C370.925 187.444 376.239 206 385.717 223.594C395.19 241.189 407.766 255.835 421.126 264.838C430.186 270.955 438.988 274.053 446.903 274.053C451.437 274.053 455.681 273.035 459.502 270.965C470.003 265.317 475.683 252.737 475.505 235.551C475.336 219.435 470.022 200.883 460.549 183.289C451.071 165.695 438.495 151.044 425.135 142.045Z" fill="#1B1464"/>
<path d="M455.075 262.745C447.785 266.679 437.58 264.669 426.346 257.098C414.221 248.925 402.71 235.457 393.937 219.172C385.168 202.878 380.248 185.862 380.098 171.234C379.952 157.691 383.891 148.063 391.181 144.134C393.622 142.824 396.387 142.162 399.41 142.162C405.419 142.162 412.442 144.749 419.915 149.781C432.04 157.954 443.551 171.427 452.324 187.711C461.098 204.005 466.013 221.022 466.168 235.649C466.309 249.192 462.37 258.816 455.075 262.745Z" fill="white"/>
<path d="M352.369 241.559C338.164 215.182 331.967 186.448 334.934 160.672C336.037 151.067 338.375 142.298 341.806 134.51L165.169 261.881C157.639 267.242 153.081 275.523 152.635 284.611C151.588 306.092 155.18 342.149 184.228 372.207L386.858 284.836C373.385 273.345 361.546 258.59 352.369 241.559Z" fill="#01AEF0"/>
<path d="M410.325 300.623C402.119 296.473 394.247 291.141 386.858 284.836L184.228 372.207C191.762 380.009 200.991 387.416 212.328 394.045C220.374 398.758 230.368 399.326 239.062 395.575L438.331 309.655C429.191 308.402 419.765 305.397 410.325 300.623Z" fill="#057DBC"/>
<path d="M618 208.9C623.8 208.9 628.6 209.4 632.4 210.4C636.4 211.2 641.6 212 648 212.8C649 217.2 649.8 222.4 650.4 228.4C651 234.2 651.4 239.7 651.6 244.9C651.6 245.9 650.6 246.4 648.6 246.4C647.8 246.4 646.9 246.3 645.9 246.1C645.1 245.9 644.3 245.5 643.5 244.9C642.5 241.3 640.8 237.4 638.4 233.2C636.2 229 633.4 225.5 630 222.7C626.8 219.7 623.1 218.2 618.9 218.2C611.9 218.2 606.7 220 603.3 223.6C599.9 227 598.2 231.3 598.2 236.5C598.2 241.5 599.4 245.6 601.8 248.8C604.2 251.8 607.3 254.5 611.1 256.9C615.1 259.1 619.3 261.5 623.7 264.1C628.1 266.7 632.9 269.6 638.1 272.8C643.3 276 647.8 279.8 651.6 284.2C655.4 288.4 657.3 293.6 657.3 299.8C657.3 307.6 655.2 314.6 651 320.8C646.8 326.8 641.3 331.6 634.5 335.2C627.7 338.6 620.3 340.3 612.3 340.3C605.5 340.3 599.7 339.6 594.9 338.2C590.1 337 584.5 335.8 578.1 334.6C577.3 332.4 576.5 329.4 575.7 325.6C574.9 321.8 574.2 317.9 573.6 313.9C573.2 309.9 573 306.7 573 304.3C574.6 303.1 576.4 302.5 578.4 302.5C579.4 302.5 580.2 302.7 580.8 303.1C582 307.1 584.1 311.3 587.1 315.7C590.1 319.9 593.8 323.5 598.2 326.5C602.6 329.3 607.4 330.7 612.6 330.7C618.6 330.7 623.6 328.9 627.6 325.3C631.6 321.7 633.6 316.5 633.6 309.7C633.6 303.7 631.8 298.9 628.2 295.3C624.6 291.5 620.1 288.2 614.7 285.4C609.3 282.4 603.7 279.3 597.9 276.1C592.1 272.7 586.9 268.6 582.3 263.8C577.9 258.8 575.7 252.4 575.7 244.6C575.7 237.4 577.7 231.1 581.7 225.7C585.9 220.3 591.2 216.2 597.6 213.4C604 210.4 610.8 208.9 618 208.9ZM754.305 208.6C763.305 208.6 771.105 210.5 777.705 214.3C784.505 218.1 790.005 223.1 794.205 229.3C798.605 235.5 801.805 242.1 803.805 249.1C806.005 255.9 807.105 262.5 807.105 268.9C807.105 278.3 805.105 287.3 801.105 295.9C797.105 304.3 791.805 311.8 785.205 318.4C778.605 324.8 771.205 329.9 763.005 333.7C755.005 337.5 746.905 339.4 738.705 339.4C734.905 339.4 731.105 339 727.305 338.2C723.505 337.6 720.405 336.9 718.005 336.1C718.005 336.1 717.805 336.4 717.405 337C717.005 337.8 716.805 338.8 716.805 340V368.2C716.805 372.6 716.805 376.7 716.805 380.5C717.005 384.5 717.505 387.7 718.305 390.1C718.705 391.1 720.105 391.9 722.505 392.5C725.105 393.3 727.805 393.8 730.605 394C733.605 394.4 735.705 394.6 736.905 394.6C737.505 395.4 737.805 396.8 737.805 398.8C738.005 401 737.705 402.5 736.905 403.3C730.905 402.9 725.605 402.5 721.005 402.1C716.405 401.9 711.205 401.8 705.405 401.8C699.805 401.8 694.705 401.9 690.105 402.1C685.705 402.5 680.505 402.9 674.505 403.3C673.705 402.5 673.305 401 673.305 398.8C673.505 396.8 673.905 395.4 674.505 394.6C675.705 394.6 677.705 394.4 680.505 394C683.305 393.8 686.005 393.3 688.605 392.5C691.205 391.9 692.605 391.1 692.805 390.1C693.605 387.7 694.005 384.5 694.005 380.5C694.205 376.7 694.305 372.6 694.305 368.2V248.5C694.305 246.5 694.205 243.9 694.005 240.7C694.005 237.5 693.605 235 692.805 233.2C692.205 231.4 690.505 230.2 687.705 229.6C684.905 228.8 682.105 228.4 679.305 228.4C676.505 228.2 674.705 228.1 673.905 228.1C673.705 227.7 673.505 226.5 673.305 224.5C673.105 222.5 673.305 221.1 673.905 220.3C681.505 219.3 688.905 217.8 696.105 215.8C703.505 213.8 710.105 211.2 715.905 208C716.705 208 717.405 208.6 718.005 209.8C718.605 211 718.905 212 718.905 212.8C718.705 213.8 718.305 215.8 717.705 218.8C717.105 221.6 716.805 223.6 716.805 224.8C716.805 225.6 717.005 226 717.405 226C717.605 226 717.905 225.8 718.305 225.4C720.705 223.2 724.005 220.8 728.205 218.2C732.405 215.6 736.805 213.4 741.405 211.6C746.205 209.6 750.505 208.6 754.305 208.6ZM741.705 226C737.705 226 733.805 226.7 730.005 228.1C726.205 229.3 723.005 230.8 720.405 232.6C718.005 234.4 716.805 236 716.805 237.4V307.6C716.805 312.6 718.305 316.7 721.305 319.9C724.505 323.1 728.205 325.5 732.405 327.1C736.805 328.5 740.705 329.2 744.105 329.2C752.305 329.2 759.205 326.8 764.805 322C770.605 317 775.005 310.7 778.005 303.1C781.005 295.5 782.505 287.8 782.505 280C782.505 262.6 778.505 249.3 770.505 240.1C762.505 230.7 752.905 226 741.705 226ZM845.876 212.5C851.476 212.5 857.076 212.3 862.676 211.9C868.476 211.5 872.676 211.2 875.276 211C875.676 211.8 875.776 213.4 875.576 215.8C875.376 218.2 874.876 219.4 874.076 219.4C873.476 219.4 871.976 219.5 869.576 219.7C867.176 219.9 864.876 220.4 862.676 221.2C860.676 221.8 859.676 222.9 859.676 224.5C859.676 224.9 859.776 225.3 859.976 225.7L891.176 304.9C891.176 304.9 891.976 302.8 893.576 298.6C895.176 294.2 897.276 288.7 899.876 282.1C902.476 275.3 905.276 268 908.276 260.2C911.276 252.4 914.176 245.1 916.976 238.3C917.776 236.5 918.276 234.8 918.476 233.2C918.676 231.4 918.776 230 918.776 229C918.776 226 917.176 223.7 913.976 222.1C910.976 220.3 906.976 219.4 901.976 219.4C901.176 219.4 900.776 218.2 900.776 215.8C900.776 213.4 901.176 211.8 901.976 211C904.176 211.2 907.576 211.5 912.176 211.9C916.976 212.3 922.376 212.5 928.376 212.5C933.976 212.5 938.676 212.3 942.476 211.9C946.476 211.5 949.976 211.2 952.976 211C953.576 211.8 953.676 213.4 953.276 215.8C953.076 218.2 952.676 219.4 952.076 219.4C951.276 219.4 949.576 219.7 946.976 220.3C944.576 220.9 941.976 221.9 939.176 223.3C936.576 224.7 934.676 226.8 933.476 229.6C929.076 240 925.076 249.4 921.476 257.8C918.076 266.2 914.676 274.4 911.276 282.4C908.076 290.2 904.676 298.4 901.076 307C897.676 315.4 893.876 324.8 889.676 335.2C886.076 344.2 882.576 353.2 879.176 362.2C875.776 371.2 871.476 379.6 866.276 387.4C863.076 392.4 859.176 396.4 854.576 399.4C850.176 402.4 845.576 403.9 840.776 403.9C837.976 403.9 835.176 403.1 832.376 401.5C829.576 399.9 828.176 396.5 828.176 391.3C828.176 389.5 828.476 387.8 829.076 386.2C829.876 384.6 830.676 383.4 831.476 382.6C836.076 382.6 840.076 382.3 843.476 381.7C847.076 381.3 850.476 379.9 853.676 377.5C857.076 375.1 860.776 371.3 864.776 366.1C866.376 363.9 868.176 360.6 870.176 356.2C872.176 352 873.976 347.9 875.576 343.9C877.376 339.9 878.376 337.4 878.576 336.4C873.176 322.4 868.076 309.4 863.276 297.4C858.476 285.2 853.576 273.3 848.576 261.7C843.776 249.9 838.476 237.8 832.676 225.4C831.276 222.4 828.776 220.7 825.176 220.3C821.576 219.7 818.876 219.4 817.076 219.4C816.676 219.4 816.476 219.4 816.476 219.4C816.276 219.4 816.176 218.1 816.176 215.5C816.176 212.7 816.276 211.2 816.476 211C819.276 211.2 823.376 211.5 828.776 211.9C834.176 212.3 839.876 212.5 845.876 212.5ZM1039.43 317.5C1047.23 317.5 1054.53 318.9 1061.33 321.7C1068.33 324.5 1073.93 328.2 1078.13 332.8C1082.53 337.4 1084.73 342.5 1084.73 348.1C1084.73 354.1 1082.63 360.3 1078.43 366.7C1074.43 373.1 1068.93 379.1 1061.93 384.7C1054.93 390.3 1046.83 394.8 1037.63 398.2C1028.43 401.8 1018.73 403.6 1008.53 403.6C1000.73 403.6 992.934 402.3 985.134 399.7C977.334 397.1 970.834 393.1 965.634 387.7C960.434 382.5 957.834 375.9 957.834 367.9C957.834 363.5 959.734 359.3 963.534 355.3C967.334 351.3 971.734 347.7 976.734 344.5C981.734 341.3 985.834 338.9 989.034 337.3C985.634 336.1 982.034 334.3 978.234 331.9C974.634 329.5 971.534 326.5 968.934 322.9C966.334 319.1 965.034 314.8 965.034 310C966.834 308 969.334 305.7 972.534 303.1C975.934 300.3 979.234 297.7 982.434 295.3C985.834 292.9 988.434 291.2 990.234 290.2C983.034 286.2 977.134 280.8 972.534 274C968.134 267 965.934 259.9 965.934 252.7C965.934 244.9 968.034 237.7 972.234 231.1C976.634 224.3 982.534 218.8 989.934 214.6C997.534 210.4 1006.03 208.3 1015.43 208.3C1021.83 208.3 1027.23 209.2 1031.63 211C1036.03 212.6 1039.53 213.9 1042.13 214.9C1044.93 215.9 1046.33 216.4 1046.33 216.4C1046.53 216.4 1047.33 216.6 1048.73 217L1080.23 212.5C1082.03 213.1 1082.93 214.1 1082.93 215.5C1082.93 216.7 1082.23 218.8 1080.83 221.8C1079.43 224.6 1077.93 226.5 1076.33 227.5C1073.93 227.3 1071.23 227.2 1068.23 227.2C1065.23 227 1062.63 226.8 1060.43 226.6C1058.23 226.4 1057.13 226.3 1057.13 226.3C1056.33 226.3 1055.93 226.6 1055.93 227.2C1056.73 228 1058.23 231 1060.43 236.2C1062.83 241.2 1064.03 247.1 1064.03 253.9C1064.03 260.7 1061.83 267.4 1057.43 274C1053.23 280.6 1047.33 286.1 1039.73 290.5C1032.33 294.7 1023.93 296.8 1014.53 296.8C1011.93 296.8 1008.93 296.5 1005.53 295.9C1002.13 295.3 999.634 294.7 998.034 294.1C995.434 295.5 992.934 297.4 990.534 299.8C988.334 302.2 987.234 304.6 987.234 307C987.234 308.4 988.734 310.5 991.734 313.3C994.734 316.1 999.134 317.5 1004.93 317.5H1039.43ZM1025.93 338.2C1024.13 338.2 1021.13 338.2 1016.93 338.2C1012.93 338.4 1009.03 338.6 1005.23 338.8C1001.63 339 999.434 339.3 998.634 339.7C995.434 341.7 991.734 344.5 987.534 348.1C983.334 351.7 981.234 355.4 981.234 359.2C981.234 368.6 984.634 376.4 991.434 382.6C998.234 389 1007.83 392.2 1020.23 392.2C1027.03 392.2 1033.83 390.7 1040.63 387.7C1047.43 384.7 1053.13 380.8 1057.73 376C1062.33 371.2 1064.63 366.1 1064.63 360.7C1064.63 357.9 1063.33 354.7 1060.73 351.1C1058.13 347.7 1054.03 344.7 1048.43 342.1C1042.83 339.5 1035.33 338.2 1025.93 338.2ZM1014.23 217.3C1008.63 217.3 1003.93 219 1000.13 222.4C996.334 225.8 993.434 230.1 991.434 235.3C989.434 240.5 988.434 245.9 988.434 251.5C988.434 257.5 989.534 263.3 991.734 268.9C993.934 274.5 997.134 279.1 1001.33 282.7C1005.53 286.3 1010.63 288.1 1016.63 288.1C1022.03 288.1 1026.53 286.5 1030.13 283.3C1033.93 279.9 1036.73 275.7 1038.53 270.7C1040.53 265.5 1041.53 260.2 1041.53 254.8C1041.53 248.6 1040.53 242.7 1038.53 237.1C1036.53 231.3 1033.53 226.6 1029.53 223C1025.53 219.2 1020.43 217.3 1014.23 217.3ZM1113.86 173.5C1113.86 171.3 1113.76 168.7 1113.56 165.7C1113.56 162.5 1113.16 160 1112.36 158.2C1111.56 156 1109.36 154.6 1105.76 154C1102.36 153.4 1098.66 153.1 1094.66 153.1C1094.46 153.1 1094.26 151.9 1094.06 149.5C1094.06 146.9 1094.36 145.5 1094.96 145.3C1102.36 144.5 1109.56 143.1 1116.56 141.1C1123.56 138.9 1130.16 136.4 1136.36 133.6C1137.16 133.6 1137.86 134.2 1138.46 135.4C1139.26 136.4 1139.66 137.4 1139.66 138.4C1139.66 138.4 1139.06 140.6 1137.86 145C1136.86 149.4 1136.36 155.7 1136.36 163.9V303.1C1136.36 307.5 1136.36 311.6 1136.36 315.4C1136.56 319.2 1137.06 322.3 1137.86 324.7C1138.26 325.7 1139.66 326.6 1142.06 327.4C1144.66 328.2 1147.36 328.8 1150.16 329.2C1153.16 329.4 1155.26 329.5 1156.46 329.5C1157.06 330.3 1157.36 331.7 1157.36 333.7C1157.56 335.7 1157.26 337.1 1156.46 337.9C1150.46 337.5 1145.16 337.2 1140.56 337C1135.96 336.6 1130.76 336.4 1124.96 336.4C1119.36 336.4 1114.26 336.6 1109.66 337C1105.26 337.2 1100.06 337.5 1094.06 337.9C1093.26 337.1 1092.86 335.7 1092.86 333.7C1093.06 331.7 1093.46 330.3 1094.06 329.5C1095.26 329.5 1097.26 329.4 1100.06 329.2C1102.86 328.8 1105.56 328.2 1108.16 327.4C1110.76 326.6 1112.16 325.7 1112.36 324.7C1113.16 322.3 1113.56 319.2 1113.56 315.4C1113.76 311.6 1113.86 307.5 1113.86 303.1V173.5ZM1232.96 209.2C1238.56 209.2 1243.76 211 1248.56 214.6C1253.56 218.2 1257.56 223 1260.56 229C1263.56 235 1265.06 241.8 1265.06 249.4V309.7C1265.06 313.5 1265.76 316.8 1267.16 319.6C1268.56 322.2 1270.86 323.5 1274.06 323.5C1276.86 323.5 1279.06 322.9 1280.66 321.7C1282.26 320.5 1283.26 319.8 1283.66 319.6C1284.06 319.6 1284.36 319.9 1284.56 320.5C1284.76 321.1 1284.86 321.6 1284.86 322C1284.86 324.2 1284.36 326.1 1283.36 327.7C1282.16 328.7 1280.16 330.1 1277.36 331.9C1274.76 333.7 1271.96 335.3 1268.96 336.7C1266.16 338.1 1263.66 338.8 1261.46 338.8C1257.26 338.8 1253.46 336.7 1250.06 332.5C1246.86 328.3 1244.76 324 1243.76 319.6C1242.96 320.4 1241.06 321.9 1238.06 324.1C1235.26 326.3 1231.96 328.6 1228.16 331C1224.36 333.2 1220.56 335.2 1216.76 337C1213.16 338.6 1210.06 339.4 1207.46 339.4C1197.86 339.4 1189.76 336.2 1183.16 329.8C1176.56 323.2 1173.26 315.2 1173.26 305.8C1173.26 299.8 1174.86 294.7 1178.06 290.5C1181.46 286.1 1184.76 283.3 1187.96 282.1C1193.56 280.1 1199.76 278 1206.56 275.8C1213.56 273.4 1220.06 271.1 1226.06 268.9C1232.06 266.7 1236.46 265 1239.26 263.8C1240.86 263.2 1241.86 262.5 1242.26 261.7C1242.66 260.7 1242.86 258.9 1242.86 256.3V248.5C1242.86 244.1 1241.76 239.8 1239.56 235.6C1237.36 231.2 1234.36 227.6 1230.56 224.8C1226.76 221.8 1222.46 220.3 1217.66 220.3C1212.66 220.3 1208.96 221.9 1206.56 225.1C1204.16 228.3 1202.46 232.8 1201.46 238.6C1199.66 248 1195.06 252.7 1187.66 252.7C1184.46 252.7 1181.96 251.4 1180.16 248.8C1178.56 246.2 1177.76 243.4 1177.76 240.4C1177.76 239.8 1177.96 238.7 1178.36 237.1C1178.76 235.3 1179.26 234 1179.86 233.2C1182.86 230.4 1187.16 227.1 1192.76 223.3C1198.36 219.5 1204.66 216.2 1211.66 213.4C1218.86 210.6 1225.96 209.2 1232.96 209.2ZM1217.36 323.5C1220.76 323.5 1224.46 322.7 1228.46 321.1C1232.46 319.5 1235.86 317.8 1238.66 316C1241.46 314 1242.86 312.5 1242.86 311.5V271.6C1239.06 272.8 1234.26 274.3 1228.46 276.1C1222.66 277.9 1218.36 279.3 1215.56 280.3C1210.36 282.3 1206.06 285.2 1202.66 289C1199.26 292.8 1197.56 297.5 1197.56 303.1C1197.56 308.5 1199.46 313.3 1203.26 317.5C1207.06 321.5 1211.76 323.5 1217.36 323.5ZM1345.44 208.9C1351.24 208.9 1356.04 209.4 1359.84 210.4C1363.84 211.2 1369.04 212 1375.44 212.8C1376.44 217.2 1377.24 222.4 1377.84 228.4C1378.44 234.2 1378.84 239.7 1379.04 244.9C1379.04 245.9 1378.04 246.4 1376.04 246.4C1375.24 246.4 1374.34 246.3 1373.34 246.1C1372.54 245.9 1371.74 245.5 1370.94 244.9C1369.94 241.3 1368.24 237.4 1365.84 233.2C1363.64 229 1360.84 225.5 1357.44 222.7C1354.24 219.7 1350.54 218.2 1346.34 218.2C1339.34 218.2 1334.14 220 1330.74 223.6C1327.34 227 1325.64 231.3 1325.64 236.5C1325.64 241.5 1326.84 245.6 1329.24 248.8C1331.64 251.8 1334.74 254.5 1338.54 256.9C1342.54 259.1 1346.74 261.5 1351.14 264.1C1355.54 266.7 1360.34 269.6 1365.54 272.8C1370.74 276 1375.24 279.8 1379.04 284.2C1382.84 288.4 1384.74 293.6 1384.74 299.8C1384.74 307.6 1382.64 314.6 1378.44 320.8C1374.24 326.8 1368.74 331.6 1361.94 335.2C1355.14 338.6 1347.74 340.3 1339.74 340.3C1332.94 340.3 1327.14 339.6 1322.34 338.2C1317.54 337 1311.94 335.8 1305.54 334.6C1304.74 332.4 1303.94 329.4 1303.14 325.6C1302.34 321.8 1301.64 317.9 1301.04 313.9C1300.64 309.9 1300.44 306.7 1300.44 304.3C1302.04 303.1 1303.84 302.5 1305.84 302.5C1306.84 302.5 1307.64 302.7 1308.24 303.1C1309.44 307.1 1311.54 311.3 1314.54 315.7C1317.54 319.9 1321.24 323.5 1325.64 326.5C1330.04 329.3 1334.84 330.7 1340.04 330.7C1346.04 330.7 1351.04 328.9 1355.04 325.3C1359.04 321.7 1361.04 316.5 1361.04 309.7C1361.04 303.7 1359.24 298.9 1355.64 295.3C1352.04 291.5 1347.54 288.2 1342.14 285.4C1336.74 282.4 1331.14 279.3 1325.34 276.1C1319.54 272.7 1314.34 268.6 1309.74 263.8C1305.34 258.8 1303.14 252.4 1303.14 244.6C1303.14 237.4 1305.14 231.1 1309.14 225.7C1313.34 220.3 1318.64 216.2 1325.04 213.4C1331.44 210.4 1338.24 208.9 1345.44 208.9ZM1453.55 208.9C1459.35 208.9 1464.15 209.4 1467.95 210.4C1471.95 211.2 1477.15 212 1483.55 212.8C1484.55 217.2 1485.35 222.4 1485.95 228.4C1486.55 234.2 1486.95 239.7 1487.15 244.9C1487.15 245.9 1486.15 246.4 1484.15 246.4C1483.35 246.4 1482.45 246.3 1481.45 246.1C1480.65 245.9 1479.85 245.5 1479.05 244.9C1478.05 241.3 1476.35 237.4 1473.95 233.2C1471.75 229 1468.95 225.5 1465.55 222.7C1462.35 219.7 1458.65 218.2 1454.45 218.2C1447.45 218.2 1442.25 220 1438.85 223.6C1435.45 227 1433.75 231.3 1433.75 236.5C1433.75 241.5 1434.95 245.6 1437.35 248.8C1439.75 251.8 1442.85 254.5 1446.65 256.9C1450.65 259.1 1454.85 261.5 1459.25 264.1C1463.65 266.7 1468.45 269.6 1473.65 272.8C1478.85 276 1483.35 279.8 1487.15 284.2C1490.95 288.4 1492.85 293.6 1492.85 299.8C1492.85 307.6 1490.75 314.6 1486.55 320.8C1482.35 326.8 1476.85 331.6 1470.05 335.2C1463.25 338.6 1455.85 340.3 1447.85 340.3C1441.05 340.3 1435.25 339.6 1430.45 338.2C1425.65 337 1420.05 335.8 1413.65 334.6C1412.85 332.4 1412.05 329.4 1411.25 325.6C1410.45 321.8 1409.75 317.9 1409.15 313.9C1408.75 309.9 1408.55 306.7 1408.55 304.3C1410.15 303.1 1411.95 302.5 1413.95 302.5C1414.95 302.5 1415.75 302.7 1416.35 303.1C1417.55 307.1 1419.65 311.3 1422.65 315.7C1425.65 319.9 1429.35 323.5 1433.75 326.5C1438.15 329.3 1442.95 330.7 1448.15 330.7C1454.15 330.7 1459.15 328.9 1463.15 325.3C1467.15 321.7 1469.15 316.5 1469.15 309.7C1469.15 303.7 1467.35 298.9 1463.75 295.3C1460.15 291.5 1455.65 288.2 1450.25 285.4C1444.85 282.4 1439.25 279.3 1433.45 276.1C1427.65 272.7 1422.45 268.6 1417.85 263.8C1413.45 258.8 1411.25 252.4 1411.25 244.6C1411.25 237.4 1413.25 231.1 1417.25 225.7C1421.45 220.3 1426.75 216.2 1433.15 213.4C1439.55 210.4 1446.35 208.9 1453.55 208.9Z" fill="black"/>
</svg>
