<svg width="512" height="512" viewBox="0 0 512 512" fill="none" xmlns="http://www.w3.org/2000/svg">
<path d="M477.602 255.998C477.602 385.785 372.332 491 242.478 491C112.62 491 7.34985 385.785 7.34985 255.998C7.34985 126.206 112.62 21 242.478 21C372.332 21 477.602 126.206 477.602 255.998Z" fill="#FCEE21"/>
<path d="M493.839 138.794C479.634 112.426 459.055 91.4674 435.893 79.7705C412.173 67.7828 388.541 66.8679 369.356 77.1994C366.877 78.5319 364.516 80.0333 362.272 81.6895L159.68 227.71C150.521 234.223 144.761 244.108 143.522 255.073L80.2383 295.766C70.216 302.213 64.4607 313.614 65.2212 325.513C65.3714 327.873 65.6155 330.486 65.9911 333.287L32.07 350.032C31.5349 349.512 30.9481 349.033 30.2862 348.639C27.2255 346.809 23.4231 346.837 20.3624 348.705L6.17626 357.385C2.2659 359.782 -0.100026 364.099 0.00324808 368.65C0.345933 383.213 4.89941 418.787 39.7499 434.571C41.4868 435.354 43.3505 435.744 45.2094 435.744C47.3078 435.744 49.3873 435.246 51.251 434.261L61.7662 428.696C64.6814 427.162 66.5873 424.286 66.8689 421.006C66.9065 420.575 66.8361 420.153 66.8173 419.726L104.836 400.043C106.17 401 107.479 401.976 108.906 402.896C114.192 406.302 120.257 408.033 126.388 408.033C130.937 408.029 135.528 407.081 139.865 405.148L207.177 375.223C207.308 375.298 207.43 375.383 207.562 375.458C213.528 378.948 220.298 380.713 227.114 380.713C232.404 380.713 237.723 379.648 242.708 377.499L467.917 280.442C470.969 279.401 473.945 278.134 476.813 276.59C495.999 266.264 508.237 246.041 511.274 219.65C514.241 193.877 508.054 165.158 493.839 138.794Z" fill="#1B1464"/>
<path d="M57.4005 420.443L46.8806 426.013C45.8995 426.529 44.6743 426.548 43.6087 426.069C13.5792 412.472 9.64067 381.233 9.34493 368.434C9.31207 367.191 9.96927 366.008 11.0537 365.347L25.2398 356.667L25.498 356.653C25.6999 356.775 25.6905 356.967 25.6858 357.051C23.8832 389.111 44.8057 410.215 57.4381 419.941" fill="#057DBC"/>
<path d="M54.4854 349.38L34.9899 359.003C34.436 376.663 41.9563 390.495 50.298 400.325L74.4925 387.797C62.4563 377.015 57.532 362.527 54.4854 349.38Z" fill="#01AEF0"/>
<path d="M67.7045 342.854L54.4853 349.38C57.5319 362.527 62.4562 377.015 74.4924 387.797L50.298 400.325C54.2928 405.035 58.4708 408.836 62.0525 411.679L96.8138 393.681C79.2384 377.93 71.2487 358.689 67.7045 342.854Z" fill="#057DBC"/>
<path d="M143.104 266.442L125.346 277.862C125.909 305.183 130.97 338.767 164.689 362.044L105.146 388.515C107.864 390.781 110.765 392.982 113.972 395.046C120.52 399.274 128.782 399.86 136.068 396.623L197.746 369.203C152.61 338.045 143.494 294.795 143.104 266.442Z" fill="#057DBC"/>
<path d="M125.346 277.862L85.294 303.616C78.1164 308.228 73.9948 316.392 74.5441 324.917C75.7552 343.928 82.2803 369.438 105.146 388.515L164.689 362.044C130.97 338.767 125.909 305.183 125.346 277.862Z" fill="#01AEF0"/>
<path d="M485.62 143.224C472.307 118.53 453.149 98.951 431.677 88.094C422.702 83.5663 413.801 80.8262 405.258 79.8409C408.07 80.9201 410.905 82.1822 413.74 83.6132C435.212 94.4608 454.37 114.035 467.683 138.743C480.991 163.441 486.812 190.199 484.061 214.104C481.39 237.31 470.912 254.951 454.571 263.819L446.737 267.193C439.418 269.646 431.475 270.388 423.19 269.477C437.916 275.07 452.196 275.854 464.674 271.678L472.508 268.3C488.849 259.437 499.327 241.791 501.998 218.585C504.749 194.679 498.933 167.922 485.62 143.224Z" fill="#057DBC"/>
<path d="M446.737 267.192L454.572 263.819C470.912 254.951 481.39 237.31 484.061 214.104C486.807 190.199 480.991 163.441 467.683 138.743C454.37 114.035 435.212 94.4608 413.74 83.6131C410.905 82.1821 408.07 80.92 405.258 79.8409C402.911 79.5781 400.592 79.4092 398.306 79.4092C389.518 79.4092 381.223 81.4033 373.783 85.4148C371.731 86.5174 369.774 87.7561 367.91 89.1355H367.915L367.788 89.234C354.808 98.8665 346.504 114.913 344.166 135.214C341.415 159.101 347.232 185.863 360.545 210.561C373.853 235.255 393.015 254.843 414.487 265.691C417.402 267.164 420.303 268.38 423.19 269.477C431.476 270.388 439.418 269.646 446.737 267.192Z" fill="#01AEF0"/>
<path d="M425.087 115.527C410.83 105.918 397.198 103.741 386.706 109.4C376.21 115.044 370.525 127.623 370.708 144.8C370.877 160.903 376.191 179.45 385.669 197.035C395.142 214.62 407.718 229.259 421.078 238.258C430.138 244.371 438.939 247.468 446.854 247.468C451.389 247.468 455.632 246.45 459.454 244.381C469.955 238.736 475.635 226.162 475.456 208.985C475.287 192.878 469.974 174.335 460.5 156.75C451.023 139.165 438.447 124.522 425.087 115.527Z" fill="#1B1464"/>
<path d="M455.027 236.165C447.737 240.097 437.531 238.089 426.298 230.521C414.172 222.352 402.662 208.891 393.888 192.615C385.119 176.329 380.2 159.321 380.049 144.701C379.904 131.165 383.842 121.542 391.133 117.615C393.574 116.306 396.339 115.645 399.362 115.645C405.371 115.645 412.393 118.23 419.867 123.26C431.992 131.428 443.502 144.894 452.276 161.17C461.05 177.456 465.965 194.464 466.12 209.084C466.26 222.62 462.322 232.238 455.027 236.165Z" fill="white"/>
<path d="M352.32 214.991C338.115 188.627 331.919 159.908 334.885 134.145C335.989 124.545 338.326 115.781 341.758 107.997L165.121 235.302C157.591 240.66 153.033 248.936 152.587 258.02C151.54 279.49 155.131 315.528 184.18 345.57L386.809 258.245C373.337 246.759 361.497 232.013 352.32 214.991Z" fill="#01AEF0"/>
<path d="M410.276 274.024C402.07 269.876 394.198 264.546 386.809 258.245L184.18 345.57C191.714 353.368 200.943 360.772 212.28 367.397C220.326 372.108 230.32 372.675 239.014 368.927L438.282 283.051C429.142 281.798 419.716 278.796 410.276 274.024Z" fill="#057DBC"/>
</svg>
